<svg width="119" height="43" viewBox="0 0 119 43" fill="none" xmlns="http://www.w3.org/2000/svg">
<path d="M34.5559 2.01017C35.4282 1.55133 36.5912 1.30105 37.7957 1.30105H37.8788C38.1695 1.30105 38.5018 1.34277 38.6264 1.34277H38.668C43.6938 1.67647 48.7611 2.80271 53.7039 4.67977C58.1066 6.34827 62.0525 8.51733 65.4169 11.1035H65.9569C64.8769 10.2693 63.7555 9.47672 62.5509 8.72589C56.6529 5.01347 49.5503 2.469 41.9493 1.30105C41.7001 1.25934 41.4508 1.21763 41.2016 1.17591C39.914 0.967352 38.5434 0.758789 37.2142 0.758789C35.5113 0.758789 34.1406 1.1342 33.0191 1.88503C32.3546 2.34387 31.8561 2.92784 31.5238 3.63696C31.4823 3.67867 31.4408 3.72038 31.3992 3.76209C29.2809 4.0958 27.038 4.67977 24.3797 5.59745C14.7435 8.85103 7.5578 13.1891 3.11349 18.5283C0.538282 21.6151 -0.417037 24.7852 0.164462 28.164C0.37214 29.3736 0.787496 30.5833 1.32746 31.7512H2.24124C0.413675 27.6634 0.787496 23.5339 3.2381 20.1134C6.85169 15.0245 13.0405 10.8115 22.1368 7.18253C25.3766 5.88944 28.2841 5.01347 31.0254 4.4295H31.067C31.1085 4.4295 31.15 4.4295 31.1916 4.47121C31.2331 4.51292 31.2746 4.59635 31.2331 4.63806C30.9423 6.22314 31.2746 8.01678 31.6484 9.56014C31.7315 9.93556 31.8561 10.311 31.9392 10.6864C32.6868 13.6063 33.476 16.6513 33.3514 19.738C33.3514 19.7797 33.3099 19.8631 33.2683 19.8631C31.8146 20.9477 30.2362 22.0322 28.2841 23.2836C25.6673 24.9521 22.926 26.5372 20.3092 28.0805C18.4817 29.1651 16.6126 30.2496 14.785 31.3758C14.8681 31.501 15.408 31.7929 15.5742 31.7929C16.9033 31.9181 18.2324 32.0015 19.4785 32.0015C23.2583 32.0015 26.4565 31.3758 29.0317 30.1244C32.7284 28.2891 33.9329 24.4098 34.3067 21.4065C34.3483 21.0311 34.3898 20.6557 34.3898 20.2803C34.3898 20.2386 34.4313 20.1551 34.4729 20.1551C36.6743 18.4866 38.4603 16.8598 39.9556 15.1496C41.4924 13.4394 45.0644 9.39329 43.2369 6.34827C41.617 3.59524 37.2558 3.30326 35.5113 3.30326C35.3036 3.30326 35.1374 3.30326 34.9298 3.30326C34.4313 3.30326 33.8914 3.34497 33.2683 3.42839C33.1853 3.42839 33.1437 3.38668 33.1022 3.34497C33.0607 3.26154 33.0607 3.17812 33.1022 3.13641C33.476 2.71928 33.9744 2.30215 34.5559 2.01017ZM33.1437 21.5317C33.1022 21.8236 33.0607 22.1156 32.9776 22.3659C32.3961 25.2024 31.3577 27.288 29.9455 28.4559C28.824 29.3736 27.4118 30.0827 25.5427 30.625C23.4659 31.209 21.0984 31.501 18.4401 31.501C17.9832 31.501 17.4848 31.501 16.9864 31.4592H16.6541L16.9448 31.2924C18.3986 30.4164 19.9354 29.4988 21.3892 28.6645C23.9228 27.1629 26.5396 25.6195 29.0317 24.0344C30.4855 23.1167 31.7731 22.2825 32.9776 21.4065L33.1437 21.2814V21.5317ZM42.1985 6.098C44.1091 9.14302 40.1632 13.4394 38.4603 15.2331C37.3388 16.4427 36.0928 17.569 34.639 18.7786L34.5144 18.9038V18.7369C34.3898 16.1507 33.7252 13.6063 33.1022 11.1452C33.0191 10.8532 32.9361 10.5195 32.853 10.2275C32.3546 8.30877 31.9392 6.098 32.6038 4.34607V4.30436H32.7284C32.7699 4.30436 32.7699 4.30436 32.8114 4.30436C37.8373 3.47011 40.9109 4.05408 42.1985 6.098Z" fill="url(#paint0_linear_495_494)"/>
<path d="M49.8494 34.6401V34.9178H47.836V42.069H47.5583V34.9178H45.5449V34.6401H49.8494Z" fill="#312783"/>
<path d="M54.7789 34.6401V34.9178H51.0298V38.181H54.7789V38.4587H51.0298V41.7912H54.7789V42.069H50.6826V34.6401H54.7789Z" fill="#312783"/>
<path d="M62.902 40.4717C62.416 41.3049 61.2357 42.2074 59.6389 42.2074C57.4866 42.2074 55.7509 40.6106 55.7509 38.3889C55.7509 36.1672 57.4866 34.5703 59.6389 34.5703C61.2357 34.5703 62.3466 35.5423 62.902 36.3754H62.5549C62.2772 35.9589 61.3052 34.848 59.6389 34.848C57.6949 34.848 56.0981 36.3754 56.0981 38.3889C56.0981 40.4717 57.6949 41.9297 59.6389 41.9297C61.3746 41.9297 62.3466 40.7494 62.5549 40.4717H62.902Z" fill="#312783"/>
<path d="M64.3599 38.181H68.5256V34.6401H68.8033V42.069H68.5256V38.4587H64.3599V42.069H64.0822V34.6401H64.3599V38.181Z" fill="#312783"/>
<path d="M75.885 41.6524V34.6401H76.1628V42.069H75.8156L70.6779 34.9178V42.069H70.4002V34.6401H70.8862L75.885 41.6524Z" fill="#312783"/>
<path d="M81.231 34.501C83.3833 34.501 85.119 36.0978 85.119 38.3195C85.119 40.5412 83.3833 42.1381 81.231 42.1381C79.0787 42.1381 77.343 40.5412 77.343 38.3195C77.4124 36.0978 79.0787 34.501 81.231 34.501ZM81.231 41.9298C83.175 41.9298 84.7719 40.4024 84.7719 38.389C84.7719 36.3061 83.175 34.8481 81.231 34.8481C79.287 34.8481 77.6902 36.3755 77.6902 38.389C77.6902 40.4024 79.287 41.9298 81.231 41.9298Z" fill="#312783"/>
<path d="M86.577 41.7912H89.7013V42.069H86.2299V34.6401H86.5076V41.7912H86.577Z" fill="#312783"/>
<path d="M94.0059 34.501C96.1582 34.501 97.8939 36.0978 97.8939 38.3195C97.8939 40.5412 96.1582 42.1381 94.0059 42.1381C91.8536 42.1381 90.1179 40.5412 90.1179 38.3195C90.1873 36.0978 91.8536 34.501 94.0059 34.501ZM94.0059 41.9298C95.9499 41.9298 97.5467 40.4024 97.5467 38.389C97.5467 36.3061 95.9499 34.8481 94.0059 34.8481C92.0619 34.8481 90.4651 36.3755 90.4651 38.389C90.4651 40.4024 92.0619 41.9298 94.0059 41.9298Z" fill="#312783"/>
<path d="M106.503 38.9443C106.295 40.7494 104.628 42.2074 102.546 42.2074C100.393 42.2074 98.6576 40.6106 98.6576 38.3889C98.6576 36.1672 100.393 34.5703 102.546 34.5703C103.934 34.5703 105.253 35.2646 105.948 36.3754H105.6C104.837 35.4035 103.795 34.848 102.615 34.848C100.671 34.848 99.0742 36.3754 99.0742 38.3889C99.0742 40.4717 100.671 41.9297 102.615 41.9297C104.49 41.9297 105.948 40.6106 106.225 39.222H101.782V38.9443H106.503Z" fill="#312783"/>
<path d="M107.892 42.069H107.614V34.6401H107.892V42.069Z" fill="#312783"/>
<path d="M113.515 34.6401V34.9178H109.766V38.181H113.515V38.4587H109.766V41.7912H113.515V42.069H109.419V34.6401H113.515Z" fill="#312783"/>
<path d="M114.904 40.194C115.112 41.652 116.154 41.9297 116.709 41.9297C117.612 41.9297 118.584 41.2354 118.584 40.194C118.584 38.8054 117.403 38.5277 116.709 38.3889C116.084 38.25 114.765 37.9029 114.765 36.5143C114.765 35.2646 115.737 34.5703 116.778 34.5703C117.681 34.5703 118.514 35.0563 118.722 36.306H118.445C118.306 35.6812 118.028 34.848 116.778 34.848C115.806 34.848 115.112 35.4729 115.112 36.4449C115.112 37.6252 116.084 37.9029 117.126 38.1806C117.473 38.25 119 38.5277 119 40.194C119 41.4437 117.959 42.2769 116.848 42.2769C115.945 42.2769 114.834 41.652 114.696 40.2634H114.904V40.194Z" fill="#312783"/>
<path d="M46.0309 32.1405H45.3366L52.0711 16.4497H52.9043L59.6388 32.1405H58.9446L56.584 26.6557H48.3914L46.0309 32.1405ZM48.6692 26.1002H56.3063L52.4877 17.0746L48.6692 26.1002Z" fill="#312783"/>
<path d="M69.1925 30.6494L76.4131 16H77.3851V31.6908H76.7602V16.6249H76.6908L69.3314 31.6908H69.0537L61.6943 16.6249H61.6249V31.6908H61V16H62.0414L69.1925 30.6494Z" fill="#312783"/>
<path d="M81.7865 32.1405H81.1616V16.4497H81.7865V32.1405Z" fill="#312783"/>
<path d="M88.4516 16.4497C90.8816 16.4497 91.8536 16.658 92.6173 17.0746C93.867 17.6994 94.9084 19.4351 94.9084 21.2403C94.9779 23.1843 93.7282 26.1002 90.2567 26.1697H89.6319L93.867 32.0711H93.1033L88.521 25.6142H89.493C90.951 25.6142 91.923 25.4754 92.9644 24.6422C93.9364 23.6008 94.2836 22.49 94.2836 21.3097C94.2836 19.9211 93.6587 18.4631 92.409 17.6994C91.437 17.0746 90.3262 17.0746 88.4516 17.0746H85.5356V32.2099H84.9108V16.4497H88.4516Z" fill="#312783"/>
<path d="M96.0194 32.1405H95.3251L102.06 16.4497H102.893L109.627 32.1405H108.933L106.572 26.6557H98.3799L96.0194 32.1405ZM98.6576 26.1002H106.295L102.476 17.0746L98.6576 26.1002Z" fill="#312783"/>
<path d="M111.988 31.5851H118.583V32.1405H111.294V16.4497H111.918V31.5851H111.988Z" fill="#312783"/>
<defs>
<linearGradient id="paint0_linear_495_494" x1="-0.00168083" y1="16.3801" x2="65.9552" y2="16.3801" gradientUnits="userSpaceOnUse">
<stop stop-color="#4EBCBC"/>
<stop offset="0.4965" stop-color="#1F92C2"/>
<stop offset="1" stop-color="#29235C"/>
</linearGradient>
</defs>
</svg>
